HIERARCHY
ROOT Hips
{
	OFFSET 0.00000 0.00000 0.00000
	CHANNELS 6 Xposition Yposition Zposition Zrotation Yrotation Xrotation 
	JOINT LHipJoint
	{
		OFFSET 0 0 0
		CHANNELS 3 Zrotation Yrotation Xrotation
		JOINT LeftHip
		{
			OFFSET 1.28858 -1.83292 1.03970
			CHANNELS 3 Zrotation Yrotation Xrotation
			JOINT LeftKnee
			{
				OFFSET 2.47846 -6.80952 0.00000
				CHANNELS 3 Zrotation Yrotation Xrotation
				JOINT LeftAnkle
				{
					OFFSET 2.75274 -7.56311 0.00000
					CHANNELS 3 Zrotation Yrotation Xrotation
					JOINT LeftToe
					{
						OFFSET 0.12848 -0.35301 1.68223
						CHANNELS 3 Zrotation Yrotation Xrotation
						End Site
						{
							OFFSET 0.00000 -0.00000 0.87311
						}
					}
				}
			}
		}
	}
	JOINT RHipJoint
	{
		OFFSET 0 0 0
		CHANNELS 3 Zrotation Yrotation Xrotation
		JOINT RightHip
		{
			OFFSET -1.31183 -1.83292 1.03970
			CHANNELS 3 Zrotation Yrotation Xrotation
			JOINT RightKnee
			{
				OFFSET -2.44740 -6.72417 0.00000
				CHANNELS 3 Zrotation Yrotation Xrotation
				JOINT RightAnkle
				{
					OFFSET -2.67343 -7.34519 0.00000
					CHANNELS 3 Zrotation Yrotation Xrotation
					JOINT RightToe
					{
						OFFSET -0.16914 -0.46471 1.77626
						CHANNELS 3 Zrotation Yrotation Xrotation
						End Site
						{
							OFFSET -0.00000 -0.00000 0.92777
						}
					}
				}
			}
		}
	}
	JOINT lowerback
	{
		OFFSET 0 0 0
		CHANNELS 3 Zrotation Yrotation Xrotation
		JOINT Chest
		{
			OFFSET 0.01249 2.14252 0.03842
			CHANNELS 3 Zrotation Yrotation Xrotation
			JOINT Chest2
			{
				OFFSET -0.02957 2.14199 -0.03751
				CHANNELS 3 Zrotation Yrotation Xrotation
				JOINT lowerneck
				{
					OFFSET 0 0 0
					CHANNELS 3 Zrotation Yrotation Xrotation
					JOINT Neck
					{
						OFFSET -0.01678 1.65709 -0.05476
						CHANNELS 3 Zrotation Yrotation Xrotation
						JOINT Head
						{
							OFFSET 0.07912 1.58331 -0.11843
							CHANNELS 3 Zrotation Yrotation Xrotation
							End Site
							{
								OFFSET 0.03298 1.73940 -0.04271
							}
						}
					}
				}
				JOINT LeftCollar
				{
					OFFSET 0 0 0
					CHANNELS 3 Zrotation Yrotation Xrotation
					JOINT LeftShoulder
					{
						OFFSET 3.39556 1.16496 0.08673
CHANNELS 3 Zrotation Xrotation Yrotation
						JOINT LeftElbow
						{
OFFSET 0 -5.239100 -0.000000
CHANNELS 3 Zrotation Xrotation Yrotation
							JOINT LeftWrist
							{
OFFSET 0 -3.314670 0.000000
CHANNELS 3 Zrotation Xrotation Yrotation
								JOINT lhand
								{
									OFFSET 0 0 0
CHANNELS 3 Zrotation Xrotation Yrotation
									JOINT LFingers
									{
OFFSET 0 -0.965900 0.000000
CHANNELS 3 Zrotation Xrotation Yrotation
										End Site
										{
OFFSET 0 -0.778730 0.000000
										}
									}
								}
								JOINT LThumb
								{
OFFSET 0 0.000000 0.000000
CHANNELS 3 Zrotation Xrotation Yrotation
									End Site
									{
OFFSET 0 -0.790620 0.790620
									}
								}
							}
						}
					}
				}
				JOINT RightCollar
				{
					OFFSET 0 0 0
					CHANNELS 3 Zrotation Yrotation Xrotation
					JOINT RightShoulder
					{
						OFFSET -3.27193 1.31331 0.33940
CHANNELS 3 Zrotation Xrotation Yrotation
						JOINT RightElbow
						{
OFFSET 0 -5.302520 0.000000
CHANNELS 3 Zrotation Xrotation Yrotation
							JOINT RightWrist
							{
OFFSET 0 -3.678750 0.000000
CHANNELS 3 Zrotation Xrotation Yrotation
								JOINT rhand
								{
									OFFSET 0 0 0
CHANNELS 3 Zrotation Xrotation Yrotation
									JOINT RFingers
									{
OFFSET 0 -0.594810 0.000000
CHANNELS 3 Zrotation Xrotation Yrotation
										End Site
										{
OFFSET 0 -0.479550 0.000000
										}
									}
								}
								JOINT RThumb
								{
OFFSET 0 0.000000 0.000000
CHANNELS 3 Zrotation Xrotation Yrotation
									End Site
									{
OFFSET 0 -0.486870 0.486870
									}
								}
							}
						}
					}
				}
			}
		}
	}
}
MOTION
Frames: 7
Frame Time: 0.008333333333333333
8.848900 18.252500 21.972100 0.712500 2.524600 6.408300 0.000000 0.000000 0.000000 -20.925300 -2.762500 -2.189900 0.118900 2.222900 6.122200 0.000000 0.000000 0.000000 0.000000 0.000000 0.000000 0.000000 0.000000 0.000000 21.578500 6.170500 2.697100 -0.015500 -0.803800 2.209200 -0.773500 -10.430900 -23.478900 -0.424500 -4.181800 11.588800 -0.236400 0.871600 -9.974700 -1.761600 1.220100 -4.093400 -1.554000 0.600800 1.373200 -0.727700 -2.987100 2.145800 2.403200 -4.066400 4.006000 0.846900 -2.022400 0.940000 0.000000 0.000000 0.000000 7.605400 3.205400 -45.627300 10.226200 -17.092600 1.540800 8.481500 -13.186500 9.129900 0.000000 0.000000 0.000000 -7.125000 0.000000 0.000000 -13.188500 20.849200 -7.837800 0.000000 0.000000 0.000000 -1.058700 13.485600 25.665000 -13.493600 -22.006100 -2.635400 -8.623200 10.711500 40.687200 0.000000 0.000000 0.000000 7.125000 0.000000 -0.000000 37.513600 67.402300 -21.401200
8.847043 18.257763 21.985472 1.005151 2.613970 6.439448 0.000000 0.000000 0.000000 -21.250140 -2.789309 -2.249037 0.125323 2.281937 6.285512 0.000000 0.000000 0.000000 0.000000 0.000000 0.000000 0.000000 0.000000 0.000000 21.321211 6.330520 2.940343 -0.013811 -0.758341 2.084085 -0.772992 -10.599153 -23.628679 -0.395453 -4.037904 11.183395 -0.578244 0.791362 -10.102651 -1.807450 1.148907 -4.071192 -1.415197 0.567901 1.458742 -0.976717 -2.876198 2.073626 2.597737 -3.927201 4.006594 0.948573 -1.954100 0.960234 0.000000 0.000000 0.000000 7.563282 3.150248 -45.944722 10.324701 -17.245863 1.569837 8.964773 -13.802866 8.888455 0.000000 0.000000 0.000000 -7.125000 0.000000 0.000000 -12.863329 21.071577 -7.567838 0.000000 0.000000 0.000000 -1.096157 13.361079 25.069565 -13.614094 -22.180355 -2.680736 -7.166788 10.881629 40.131883 0.000000 0.000000 0.000000 7.125000 0.000000 0.000000 38.125473 66.541775 -21.064293
8.846094 18.257269 21.992861 1.095369 2.574876 6.464006 0.000000 0.000000 0.000000 -21.292782 -2.265523 -1.962053 0.095762 1.987090 5.470311 0.000000 0.000000 0.000000 0.000000 0.000000 0.000000 0.000000 0.000000 0.000000 21.230729 6.386708 2.989246 -0.013526 -0.750892 2.063593 -0.790996 -10.555165 -23.742926 -0.375163 -3.933284 10.889121 -0.689309 0.791801 -10.249429 -1.826137 1.164489 -3.985316 -1.367749 0.576444 1.626629 -0.991883 -2.846296 2.091678 2.631820 -3.883817 3.794248 0.963384 -1.933816 0.891526 0.000000 0.000000 0.000000 7.491762 2.825347 -45.882732 10.262926 -17.149829 1.551599 8.987951 -13.825146 8.906371 0.000000 0.000000 0.000000 -7.125000 0.000000 0.000000 -12.845543 21.053085 -7.562394 0.000000 0.000000 0.000000 -1.160291 13.071048 25.196554 -13.705166 -22.311690 -2.715222 -6.726119 10.609917 39.986779 0.000000 0.000000 0.000000 7.125000 0.000000 0.000000 38.348576 66.301023 -20.997726
8.853694 18.259740 21.996098 1.172272 2.643226 6.472431 0.000000 0.000000 0.000000 -21.425977 -1.909415 -1.841040 0.081337 1.839238 5.061613 0.000000 0.000000 0.000000 0.000000 0.000000 0.000000 0.000000 0.000000 0.000000 21.048981 5.969988 2.840521 -0.013789 -0.759421 2.087053 -0.790406 -10.308277 -23.514338 -0.342823 -3.762150 10.408577 -0.668548 0.787530 -10.261414 -1.876107 1.158772 -3.963021 -1.431457 0.573302 1.657630 -0.928489 -2.828816 2.195419 2.663456 -3.855917 3.581607 0.965377 -1.920924 0.807131 0.000000 0.000000 0.000000 7.534321 2.711256 -46.222218 10.315153 -17.231081 1.567053 8.939800 -14.118648 8.898069 0.000000 0.000000 0.000000 -7.125000 0.000000 0.000000 -12.880276 21.062910 -7.580992 0.000000 0.000000 0.000000 -1.237895 12.852146 25.482383 -13.804929 -22.455150 -2.753151 -6.767278 10.397043 40.441622 0.000000 0.000000 0.000000 7.125000 0.000000 0.000000 39.010928 66.657251 -21.716806
8.868311 18.266541 21.996829 1.289932 2.888913 6.423793 0.000000 0.000000 0.000000 -21.707368 -1.801083 -1.811653 0.083105 1.859953 5.118845 -0.218944 -9.038002 -0.596393 4.173925 12.388033 37.119396 0.000000 0.000000 0.000000 20.731816 4.986741 2.542830 -0.014657 -0.780663 2.145418 -0.753650 -9.936707 -22.857776 -0.285429 -3.434656 9.491409 -0.590073 0.735191 -10.049720 -1.963072 1.079585 -4.018026 -1.577620 0.532677 1.486100 -0.783962 -2.825220 2.276575 2.566085 -3.844317 3.479925 0.912728 -1.915209 0.756609 0.000000 0.000000 0.000000 7.619992 2.780647 -46.663464 10.400509 -17.363619 1.592417 9.009400 -14.500714 9.032223 0.000000 0.000000 0.000000 -7.125000 0.000000 0.000000 -12.821798 20.928344 -7.584817 0.000000 0.000000 0.000000 -1.281902 12.775040 25.941730 -13.859594 -22.533554 -2.774067 -7.484013 10.174541 40.508836 0.000000 0.000000 0.000000 7.125000 0.000000 0.000000 38.391179 66.922183 -21.554324
8.868708 18.265132 22.001546 1.310036 2.862066 6.360541 0.000000 0.000000 0.000000 -21.734477 -1.835078 -1.680900 0.082880 1.857019 5.110718 -0.218943 -9.074017 -0.676833 4.366469 12.631811 38.006837 0.000000 0.000000 0.000000 20.730581 5.025084 2.633120 -0.015042 -0.791349 2.174921 -0.744673 -10.015593 -22.849114 -0.262224 -3.294419 9.099500 -0.589167 0.747506 -9.935387 -1.980321 1.094282 -4.015548 -1.595645 0.539870 1.426730 -0.668238 -2.851714 2.203862 2.407275 -3.874197 3.494077 0.842868 -1.929253 0.767339 0.000000 0.000000 0.000000 7.619535 2.722192 -46.646962 10.455164 -17.448427 1.608781 8.923300 -14.243399 9.055342 0.000000 0.000000 0.000000 -7.125000 0.000000 0.000000 -12.881194 20.908279 -7.627785 0.000000 0.000000 0.000000 -1.305140 12.664327 26.204868 -13.944542 -22.655275 -2.806729 -8.101358 10.272451 40.390361 0.000000 0.000000 0.000000 7.125000 0.000000 0.000000 37.575110 67.017800 -21.121056
8.862549 18.261346 22.007630 1.141455 2.750943 6.369111 0.000000 0.000000 0.000000 -21.447627 -2.128288 -1.525979 0.077945 1.800429 4.954413 -0.195475 -8.816811 -1.136336 4.439151 12.722975 38.340027 0.000000 0.000000 0.000000 21.050711 5.559922 2.832042 -0.014821 -0.786959 2.162771 -0.756232 -10.263534 -23.176238 -0.261024 -3.286900 9.078511 -0.487522 0.787330 -10.015420 -1.915809 1.138240 -3.966717 -1.579771 0.561558 1.522963 -0.750505 -2.846591 1.963614 2.499132 -3.874220 3.645580 0.880684 -1.926958 0.858101 0.000000 0.000000 0.000000 7.619476 2.539759 -46.736681 10.490743 -17.503496 1.619463 8.722995 -14.005626 8.937916 0.000000 0.000000 0.000000 -7.125000 0.000000 0.000000 -13.031225 21.030489 -7.684338 0.000000 0.000000 0.000000 -1.375655 12.482460 26.345355 -14.131586 -22.922464 -2.879140 -7.952480 10.085270 40.625213 0.000000 0.000000 0.000000 7.125000 0.000000 0.000000 38.100356 67.151553 -21.564368
